<?xml version="1.0" encoding="UTF-8"?>
<mxfile host="app.diagrams.net" agent="Mozilla/5.0 (Windows NT 10.0; Win64; x64) AppleWebKit/537.36 (KHTML, like Gecko) Chrome/133.0.0.0 Safari/537.36 Edg/133.0.0.0" version="26.0.16">
  <diagram name="Page-1" id="Dwa-ibOoVPaJrGdWdiYW">
    <mxGraphModel dx="1426" dy="1889" grid="1" gridSize="10" guides="1" tooltips="1" connect="1" arrows="1" fold="1" page="1" pageScale="1" pageWidth="850" pageHeight="1100" math="0" shadow="0">
      <root>
        <mxCell id="0" />
        <mxCell id="1" parent="0" />
        <mxCell id="ImWzo3VBtaaLNmPFxe4e-1" value="Customer" style="shape=umlActor;verticalLabelPosition=bottom;verticalAlign=top;html=1;outlineConnect=0;" parent="1" vertex="1">
          <mxGeometry x="80" y="190" width="30" height="60" as="geometry" />
        </mxCell>
        <mxCell id="ImWzo3VBtaaLNmPFxe4e-2" value="" style="group" parent="1" vertex="1" connectable="0">
          <mxGeometry x="189" y="10" width="1000" height="1440" as="geometry" />
        </mxCell>
        <mxCell id="ImWzo3VBtaaLNmPFxe4e-3" value="" style="rounded=0;whiteSpace=wrap;html=1;" parent="ImWzo3VBtaaLNmPFxe4e-2" vertex="1">
          <mxGeometry x="21" y="-60" width="979" height="1440" as="geometry" />
        </mxCell>
        <mxCell id="ImWzo3VBtaaLNmPFxe4e-4" value="TicketMaster Class Diagram" style="rounded=0;whiteSpace=wrap;html=1;" parent="ImWzo3VBtaaLNmPFxe4e-2" vertex="1">
          <mxGeometry x="251" width="120" height="90" as="geometry" />
        </mxCell>
        <mxCell id="ImWzo3VBtaaLNmPFxe4e-5" value="Search Events" style="ellipse;whiteSpace=wrap;html=1;strokeWidth=1;" parent="ImWzo3VBtaaLNmPFxe4e-2" vertex="1">
          <mxGeometry x="131" y="90" width="120" height="120" as="geometry" />
        </mxCell>
        <mxCell id="ImWzo3VBtaaLNmPFxe4e-6" value="View Event Details" style="ellipse;whiteSpace=wrap;html=1;strokeWidth=1;" parent="ImWzo3VBtaaLNmPFxe4e-2" vertex="1">
          <mxGeometry x="131" y="220" width="120" height="120" as="geometry" />
        </mxCell>
        <mxCell id="ImWzo3VBtaaLNmPFxe4e-7" value="Book Tickets" style="ellipse;whiteSpace=wrap;html=1;strokeWidth=1;" parent="ImWzo3VBtaaLNmPFxe4e-2" vertex="1">
          <mxGeometry x="121" y="360" width="120" height="120" as="geometry" />
        </mxCell>
        <mxCell id="ImWzo3VBtaaLNmPFxe4e-8" value="Handle Payments" style="ellipse;whiteSpace=wrap;html=1;strokeWidth=1;" parent="ImWzo3VBtaaLNmPFxe4e-2" vertex="1">
          <mxGeometry x="121" y="540" width="120" height="120" as="geometry" />
        </mxCell>
        <mxCell id="ImWzo3VBtaaLNmPFxe4e-12" value="&amp;lt;&amp;lt;include&amp;gt;&amp;gt;" style="endArrow=open;dashed=1;html=1;endFill=0;rounded=0;exitX=0.5;exitY=1;exitDx=0;exitDy=0;" parent="ImWzo3VBtaaLNmPFxe4e-2" source="ImWzo3VBtaaLNmPFxe4e-7" target="ImWzo3VBtaaLNmPFxe4e-8" edge="1">
          <mxGeometry width="50" height="50" relative="1" as="geometry">
            <mxPoint x="-139" y="900" as="sourcePoint" />
            <mxPoint x="-29" y="900" as="targetPoint" />
          </mxGeometry>
        </mxCell>
        <mxCell id="ImWzo3VBtaaLNmPFxe4e-17" value="Cancel Booking" style="ellipse;whiteSpace=wrap;html=1;strokeWidth=1;" parent="ImWzo3VBtaaLNmPFxe4e-2" vertex="1">
          <mxGeometry x="351" y="450" width="120" height="80" as="geometry" />
        </mxCell>
        <mxCell id="ImWzo3VBtaaLNmPFxe4e-18" value="&lt;div&gt;&amp;lt;&amp;lt;extend&amp;gt;&amp;gt;&lt;/div&gt;" style="endArrow=open;dashed=1;html=1;endFill=0;rounded=0;entryX=1;entryY=0.5;entryDx=0;entryDy=0;exitX=0;exitY=0.5;exitDx=0;exitDy=0;" parent="ImWzo3VBtaaLNmPFxe4e-2" source="ImWzo3VBtaaLNmPFxe4e-17" target="ImWzo3VBtaaLNmPFxe4e-7" edge="1">
          <mxGeometry width="50" height="50" relative="1" as="geometry">
            <mxPoint x="241" y="770" as="sourcePoint" />
            <mxPoint x="351" y="770" as="targetPoint" />
          </mxGeometry>
        </mxCell>
        <mxCell id="ImWzo3VBtaaLNmPFxe4e-19" value="Apply Discount" style="ellipse;whiteSpace=wrap;html=1;strokeWidth=1;" parent="ImWzo3VBtaaLNmPFxe4e-2" vertex="1">
          <mxGeometry x="351" y="340" width="120" height="80" as="geometry" />
        </mxCell>
        <mxCell id="ImWzo3VBtaaLNmPFxe4e-20" value="&lt;div&gt;&amp;lt;&amp;lt;extend&amp;gt;&amp;gt;&lt;/div&gt;" style="endArrow=open;dashed=1;html=1;endFill=0;rounded=0;exitX=0;exitY=0.5;exitDx=0;exitDy=0;entryX=1;entryY=0.5;entryDx=0;entryDy=0;" parent="ImWzo3VBtaaLNmPFxe4e-2" source="ImWzo3VBtaaLNmPFxe4e-19" target="ImWzo3VBtaaLNmPFxe4e-7" edge="1">
          <mxGeometry width="50" height="50" relative="1" as="geometry">
            <mxPoint x="401" y="610" as="sourcePoint" />
            <mxPoint x="295" y="530" as="targetPoint" />
          </mxGeometry>
        </mxCell>
        <mxCell id="ImWzo3VBtaaLNmPFxe4e-35" value="Make Payment" style="ellipse;whiteSpace=wrap;html=1;strokeWidth=1;" parent="ImWzo3VBtaaLNmPFxe4e-2" vertex="1">
          <mxGeometry x="211" y="730" width="120" height="120" as="geometry" />
        </mxCell>
        <mxCell id="ImWzo3VBtaaLNmPFxe4e-53" value="Process Refund" style="ellipse;whiteSpace=wrap;html=1;strokeWidth=1;" parent="ImWzo3VBtaaLNmPFxe4e-2" vertex="1">
          <mxGeometry x="61" y="730" width="120" height="120" as="geometry" />
        </mxCell>
        <mxCell id="ImWzo3VBtaaLNmPFxe4e-54" value="" style="endArrow=block;endSize=16;endFill=0;html=1;rounded=0;exitX=0.163;exitY=0.528;exitDx=0;exitDy=0;entryX=0.5;entryY=1;entryDx=0;entryDy=0;exitPerimeter=0;" parent="ImWzo3VBtaaLNmPFxe4e-2" source="ImWzo3VBtaaLNmPFxe4e-3" target="ImWzo3VBtaaLNmPFxe4e-8" edge="1">
          <mxGeometry width="160" relative="1" as="geometry">
            <mxPoint x="421" y="470" as="sourcePoint" />
            <mxPoint x="421" y="410" as="targetPoint" />
          </mxGeometry>
        </mxCell>
        <mxCell id="ImWzo3VBtaaLNmPFxe4e-56" value="" style="endArrow=none;html=1;rounded=0;" parent="ImWzo3VBtaaLNmPFxe4e-2" edge="1">
          <mxGeometry width="50" height="50" relative="1" as="geometry">
            <mxPoint x="115" y="730" as="sourcePoint" />
            <mxPoint x="181" y="700" as="targetPoint" />
          </mxGeometry>
        </mxCell>
        <mxCell id="ImWzo3VBtaaLNmPFxe4e-64" value="Manage Event" style="ellipse;whiteSpace=wrap;html=1;strokeWidth=1;" parent="ImWzo3VBtaaLNmPFxe4e-2" vertex="1">
          <mxGeometry x="671" y="350" width="120" height="80" as="geometry" />
        </mxCell>
        <mxCell id="ImWzo3VBtaaLNmPFxe4e-65" value="Approve Event" style="ellipse;whiteSpace=wrap;html=1;strokeWidth=1;" parent="ImWzo3VBtaaLNmPFxe4e-2" vertex="1">
          <mxGeometry x="671" y="-20" width="120" height="80" as="geometry" />
        </mxCell>
        <mxCell id="ImWzo3VBtaaLNmPFxe4e-66" value="Monitor Transactions" style="ellipse;whiteSpace=wrap;html=1;strokeWidth=1;" parent="ImWzo3VBtaaLNmPFxe4e-2" vertex="1">
          <mxGeometry x="671" y="90" width="120" height="80" as="geometry" />
        </mxCell>
        <mxCell id="ImWzo3VBtaaLNmPFxe4e-63" value="Create Event" style="ellipse;whiteSpace=wrap;html=1;strokeWidth=1;" parent="ImWzo3VBtaaLNmPFxe4e-2" vertex="1">
          <mxGeometry x="671" y="220" width="120" height="80" as="geometry" />
        </mxCell>
        <mxCell id="ImWzo3VBtaaLNmPFxe4e-71" value="Manage Event Operations" style="ellipse;whiteSpace=wrap;html=1;strokeWidth=1;" parent="ImWzo3VBtaaLNmPFxe4e-2" vertex="1">
          <mxGeometry x="461" y="170" width="120" height="80" as="geometry" />
        </mxCell>
        <mxCell id="ImWzo3VBtaaLNmPFxe4e-72" value="" style="endArrow=block;endSize=16;endFill=0;html=1;rounded=0;entryX=0.5;entryY=0;entryDx=0;entryDy=0;exitX=0;exitY=0.5;exitDx=0;exitDy=0;" parent="ImWzo3VBtaaLNmPFxe4e-2" source="ImWzo3VBtaaLNmPFxe4e-65" target="ImWzo3VBtaaLNmPFxe4e-71" edge="1">
          <mxGeometry width="160" relative="1" as="geometry">
            <mxPoint x="731" y="470" as="sourcePoint" />
            <mxPoint x="731" y="410" as="targetPoint" />
          </mxGeometry>
        </mxCell>
        <mxCell id="ImWzo3VBtaaLNmPFxe4e-73" value="" style="endArrow=block;endSize=16;endFill=0;html=1;rounded=0;entryX=0.5;entryY=0;entryDx=0;entryDy=0;exitX=0;exitY=0.5;exitDx=0;exitDy=0;" parent="ImWzo3VBtaaLNmPFxe4e-2" source="ImWzo3VBtaaLNmPFxe4e-63" edge="1">
          <mxGeometry width="160" relative="1" as="geometry">
            <mxPoint x="731" y="60" as="sourcePoint" />
            <mxPoint x="581" y="210" as="targetPoint" />
          </mxGeometry>
        </mxCell>
        <mxCell id="ImWzo3VBtaaLNmPFxe4e-74" value="" style="endArrow=block;endSize=16;endFill=0;html=1;rounded=0;entryX=0.5;entryY=1;entryDx=0;entryDy=0;exitX=0;exitY=0.5;exitDx=0;exitDy=0;" parent="ImWzo3VBtaaLNmPFxe4e-2" source="ImWzo3VBtaaLNmPFxe4e-64" target="ImWzo3VBtaaLNmPFxe4e-71" edge="1">
          <mxGeometry width="160" relative="1" as="geometry">
            <mxPoint x="621" y="310" as="sourcePoint" />
            <mxPoint x="531" y="260" as="targetPoint" />
          </mxGeometry>
        </mxCell>
        <mxCell id="ImWzo3VBtaaLNmPFxe4e-25" value="Staff" style="shape=umlActor;verticalLabelPosition=bottom;verticalAlign=top;html=1;outlineConnect=0;" parent="1" vertex="1">
          <mxGeometry x="1370" y="120" width="30" height="60" as="geometry" />
        </mxCell>
        <mxCell id="ImWzo3VBtaaLNmPFxe4e-26" value="" style="endArrow=none;html=1;rounded=0;entryX=0;entryY=0.5;entryDx=0;entryDy=0;exitX=0.5;exitY=0.5;exitDx=0;exitDy=0;exitPerimeter=0;" parent="1" source="ImWzo3VBtaaLNmPFxe4e-1" target="ImWzo3VBtaaLNmPFxe4e-5" edge="1">
          <mxGeometry width="50" height="50" relative="1" as="geometry">
            <mxPoint x="110" y="220" as="sourcePoint" />
            <mxPoint x="440" y="490" as="targetPoint" />
          </mxGeometry>
        </mxCell>
        <mxCell id="ImWzo3VBtaaLNmPFxe4e-29" value="System Admin" style="shape=umlActor;verticalLabelPosition=bottom;verticalAlign=top;html=1;outlineConnect=0;" parent="1" vertex="1">
          <mxGeometry x="1220" y="60" width="30" height="60" as="geometry" />
        </mxCell>
        <mxCell id="ImWzo3VBtaaLNmPFxe4e-14" value="" style="endArrow=none;html=1;rounded=0;entryX=0;entryY=0.5;entryDx=0;entryDy=0;exitX=0.5;exitY=0.5;exitDx=0;exitDy=0;exitPerimeter=0;" parent="1" source="ImWzo3VBtaaLNmPFxe4e-1" target="ImWzo3VBtaaLNmPFxe4e-7" edge="1">
          <mxGeometry width="50" height="50" relative="1" as="geometry">
            <mxPoint x="110" y="220" as="sourcePoint" />
            <mxPoint x="334" y="435" as="targetPoint" />
          </mxGeometry>
        </mxCell>
        <mxCell id="ImWzo3VBtaaLNmPFxe4e-15" value="" style="endArrow=none;html=1;rounded=0;exitX=0.5;exitY=0.5;exitDx=0;exitDy=0;exitPerimeter=0;entryX=0.5;entryY=0;entryDx=0;entryDy=0;" parent="1" source="ImWzo3VBtaaLNmPFxe4e-1" target="ImWzo3VBtaaLNmPFxe4e-17" edge="1">
          <mxGeometry width="50" height="50" relative="1" as="geometry">
            <mxPoint x="110" y="220" as="sourcePoint" />
            <mxPoint x="364" y="590" as="targetPoint" />
          </mxGeometry>
        </mxCell>
        <mxCell id="ImWzo3VBtaaLNmPFxe4e-13" value="" style="endArrow=none;html=1;rounded=0;entryX=0;entryY=0.5;entryDx=0;entryDy=0;exitX=0.5;exitY=0.5;exitDx=0;exitDy=0;exitPerimeter=0;" parent="1" source="ImWzo3VBtaaLNmPFxe4e-1" target="ImWzo3VBtaaLNmPFxe4e-6" edge="1">
          <mxGeometry width="50" height="50" relative="1" as="geometry">
            <mxPoint x="110" y="220" as="sourcePoint" />
            <mxPoint x="353.5" y="272" as="targetPoint" />
          </mxGeometry>
        </mxCell>
        <mxCell id="ImWzo3VBtaaLNmPFxe4e-32" value="&lt;div&gt;&amp;lt;&amp;lt;external&amp;gt;&amp;gt;&lt;/div&gt;&lt;div&gt;Payment System&lt;/div&gt;" style="shape=umlActor;verticalLabelPosition=bottom;verticalAlign=top;html=1;outlineConnect=0;" parent="1" vertex="1">
          <mxGeometry x="80" y="900" width="30" height="60" as="geometry" />
        </mxCell>
        <mxCell id="ImWzo3VBtaaLNmPFxe4e-34" value="" style="endArrow=none;html=1;rounded=0;entryX=0.5;entryY=0.5;entryDx=0;entryDy=0;entryPerimeter=0;exitX=0.5;exitY=1;exitDx=0;exitDy=0;" parent="1" source="ImWzo3VBtaaLNmPFxe4e-35" target="ImWzo3VBtaaLNmPFxe4e-32" edge="1">
          <mxGeometry width="50" height="50" relative="1" as="geometry">
            <mxPoint x="430" y="470" as="sourcePoint" />
            <mxPoint x="480" y="420" as="targetPoint" />
          </mxGeometry>
        </mxCell>
        <mxCell id="ImWzo3VBtaaLNmPFxe4e-37" value="Event Organiser" style="shape=umlActor;verticalLabelPosition=bottom;verticalAlign=top;html=1;outlineConnect=0;" parent="1" vertex="1">
          <mxGeometry x="1220" y="230" width="30" height="60" as="geometry" />
        </mxCell>
        <mxCell id="ImWzo3VBtaaLNmPFxe4e-57" value="" style="endArrow=none;html=1;rounded=0;entryX=0.5;entryY=0;entryDx=0;entryDy=0;" parent="1" target="ImWzo3VBtaaLNmPFxe4e-35" edge="1">
          <mxGeometry width="50" height="50" relative="1" as="geometry">
            <mxPoint x="370" y="710" as="sourcePoint" />
            <mxPoint x="630" y="430" as="targetPoint" />
          </mxGeometry>
        </mxCell>
        <mxCell id="ImWzo3VBtaaLNmPFxe4e-58" value="" style="endArrow=block;endSize=16;endFill=0;html=1;rounded=0;exitX=0.5;exitY=0.5;exitDx=0;exitDy=0;exitPerimeter=0;" parent="1" source="ImWzo3VBtaaLNmPFxe4e-29" target="ImWzo3VBtaaLNmPFxe4e-25" edge="1">
          <mxGeometry width="160" relative="1" as="geometry">
            <mxPoint x="1230" y="230" as="sourcePoint" />
            <mxPoint x="1230.53" y="150" as="targetPoint" />
          </mxGeometry>
        </mxCell>
        <mxCell id="ImWzo3VBtaaLNmPFxe4e-62" value="" style="endArrow=block;endSize=16;endFill=0;html=1;rounded=0;exitX=0.5;exitY=0.5;exitDx=0;exitDy=0;exitPerimeter=0;" parent="1" source="ImWzo3VBtaaLNmPFxe4e-37" target="ImWzo3VBtaaLNmPFxe4e-25" edge="1">
          <mxGeometry width="160" relative="1" as="geometry">
            <mxPoint x="920" y="370" as="sourcePoint" />
            <mxPoint x="920" y="310" as="targetPoint" />
          </mxGeometry>
        </mxCell>
        <mxCell id="ImWzo3VBtaaLNmPFxe4e-67" value="" style="endArrow=none;html=1;rounded=0;entryX=1;entryY=0.5;entryDx=0;entryDy=0;exitX=0.5;exitY=0.5;exitDx=0;exitDy=0;exitPerimeter=0;" parent="1" source="ImWzo3VBtaaLNmPFxe4e-29" target="ImWzo3VBtaaLNmPFxe4e-65" edge="1">
          <mxGeometry width="50" height="50" relative="1" as="geometry">
            <mxPoint x="900" y="370" as="sourcePoint" />
            <mxPoint x="950" y="320" as="targetPoint" />
          </mxGeometry>
        </mxCell>
        <mxCell id="ImWzo3VBtaaLNmPFxe4e-68" value="" style="endArrow=none;html=1;rounded=0;entryX=1;entryY=0.5;entryDx=0;entryDy=0;exitX=0.5;exitY=0.5;exitDx=0;exitDy=0;exitPerimeter=0;" parent="1" source="ImWzo3VBtaaLNmPFxe4e-29" target="ImWzo3VBtaaLNmPFxe4e-66" edge="1">
          <mxGeometry width="50" height="50" relative="1" as="geometry">
            <mxPoint x="900" y="370" as="sourcePoint" />
            <mxPoint x="950" y="320" as="targetPoint" />
          </mxGeometry>
        </mxCell>
        <mxCell id="ImWzo3VBtaaLNmPFxe4e-69" value="" style="endArrow=none;html=1;rounded=0;entryX=1;entryY=0.5;entryDx=0;entryDy=0;exitX=0.5;exitY=0.5;exitDx=0;exitDy=0;exitPerimeter=0;" parent="1" source="ImWzo3VBtaaLNmPFxe4e-37" target="ImWzo3VBtaaLNmPFxe4e-63" edge="1">
          <mxGeometry width="50" height="50" relative="1" as="geometry">
            <mxPoint x="900" y="370" as="sourcePoint" />
            <mxPoint x="950" y="320" as="targetPoint" />
          </mxGeometry>
        </mxCell>
        <mxCell id="ImWzo3VBtaaLNmPFxe4e-70" value="" style="endArrow=none;html=1;rounded=0;entryX=1;entryY=0.5;entryDx=0;entryDy=0;exitX=0.5;exitY=0.5;exitDx=0;exitDy=0;exitPerimeter=0;" parent="1" source="ImWzo3VBtaaLNmPFxe4e-37" target="ImWzo3VBtaaLNmPFxe4e-64" edge="1">
          <mxGeometry width="50" height="50" relative="1" as="geometry">
            <mxPoint x="900" y="470" as="sourcePoint" />
            <mxPoint x="950" y="420" as="targetPoint" />
          </mxGeometry>
        </mxCell>
        <mxCell id="tvVrtBBywWVaW9ANU-LO-2" value="" style="endArrow=none;html=1;rounded=0;entryX=0.5;entryY=0.5;entryDx=0;entryDy=0;entryPerimeter=0;exitX=1;exitY=0.5;exitDx=0;exitDy=0;" parent="1" source="ImWzo3VBtaaLNmPFxe4e-66" target="ImWzo3VBtaaLNmPFxe4e-37" edge="1">
          <mxGeometry width="50" height="50" relative="1" as="geometry">
            <mxPoint x="910" y="570" as="sourcePoint" />
            <mxPoint x="960" y="520" as="targetPoint" />
          </mxGeometry>
        </mxCell>
      </root>
    </mxGraphModel>
  </diagram>
</mxfile>
